<svg xmlns="http://www.w3.org/2000/svg" xmlns:xlink="http://www.w3.org/1999/xlink" width="122" height="95" viewBox="0 0 122 95">
    <defs>
        <path id="d0s1mzjrha" d="M0 0L17 0 17 55.938 0 55.938z"/>
    </defs>
    <g fill="none" fill-rule="evenodd">
        <g>
            <g>
                <g>
                    <g>
                        <path stroke="#FFF" stroke-linecap="round" stroke-linejoin="round" stroke-width="3" d="M43.727 10.627S40.627 4.903 47.23 4c0 0 1.374 3.61 6.816 4.205 3.173.347 4.974 3.937 3.337 6.682l-.07.113M47.084 3.576s-.011-.037-.025-.104c-.44-2.137 1.644-3.969 3.774-3.35 1.742.506 4.41.9 7.826.245 1.681-.322 3.43.005 4.855.936C65.753 2.77 69.089 5.314 72 9" transform="translate(-755 -802) translate(0 734) translate(258 59.653) translate(497 10.347)"/>
                        <path stroke="#FFF" stroke-linecap="round" stroke-linejoin="round" stroke-width="3" d="M57.607 12.383l14.308-2.242c1.468-.23 2.966-.178 4.415.152l2.548.58c3.083.702 4.544 4.346 2.706 6.933l-.076.105s3.866 1.64 2.537 6.865c0 0 3.383 2.188 1.33 6.379 0 0 3.503 2.005 2.416 6.015-6.133 4.78-12.747 8.897-19.735 12.286l-3.02 1.464-11.815 1.151c-3.192.31-6.31 1.153-9.226 2.494L25 67" transform="translate(-755 -802) translate(0 734) translate(258 59.653) translate(497 10.347)"/>
                        <path stroke="#FFF" stroke-linecap="round" stroke-linejoin="round" stroke-width="3" d="M39.743 24s-2.995.852-2.726 3.543c.15 1.49 1.318 2.695 2.788 3.096l4.473 1.223c2.007.548 4.204-.58 4.645-2.58.18-.82.072-1.754-.603-2.755M39 31L25 41M65 51s20.771 11.236 32 16M88 37L95 41M82 17.063L73 17.938M84 24L74 27M86 30L77 35M15.643 42.089L25 37 25 70.358 15 76" transform="translate(-755 -802) translate(0 734) translate(258 59.653) translate(497 10.347)"/>
                        <path fill="#FFF" d="M17 37L17 84 0 93 0 45.861z" transform="translate(-755 -802) translate(0 734) translate(258 59.653) translate(497 10.347)"/>
                        <path stroke="#FFF" stroke-linecap="round" stroke-linejoin="round" stroke-width="3" d="M106.357 42.089L97 37 97 70.358 107 76" transform="translate(-755 -802) translate(0 734) translate(258 59.653) translate(497 10.347)"/>
                        <g transform="translate(-755 -802) translate(0 734) translate(258 59.653) translate(497 10.347) translate(104.5 37.062)">
                            <mask id="8sxuyw8o6b" fill="#fff">
                                <use xlink:href="#d0s1mzjrha"/>
                            </mask>
                            <path fill="#FFF" d="M0 0L0 46.948 17 55.938 17 8.851z" mask="url(#8sxuyw8o6b)"/>
                        </g>
                        <path stroke="#FFF" stroke-linecap="round" stroke-linejoin="round" stroke-width="3" d="M50.264 20.89l3.843 1.057c2.02.556 4.126-.562 4.73-2.513.596-1.927-.492-3.965-2.456-4.606L45.37 11.24c-1.383-.45-2.948-.278-4.083.61-.714.56-1.34 1.404-1.525 2.673-.255 1.745.876 3.408 2.608 3.941l11.439 3.514-.787 2.312c-.717 2.105-3.08 3.225-5.232 2.478l-.646-.224-8.077-2.313c-1.736-.638-2.537-3.144-1.786-4.793.432-.95 1.413-1.777 3.446-1.986" transform="translate(-755 -802) translate(0 734) translate(258 59.653) translate(497 10.347)"/>
                    </g>
                </g>
            </g>
        </g>
    </g>
</svg>
