<svg xmlns="http://www.w3.org/2000/svg" width="88" height="121" viewBox="0 0 88 121">
    <g fill="none" fill-rule="evenodd">
        <g>
            <g>
                <g>
                    <g>
                        <path fill="#FFF" d="M72.602 30.932L72.602 6.686 48.356 6.686zM0 81.602L0 105.849 24.246 105.849z" transform="translate(-303 -793) translate(0 734) translate(258 59.653) translate(46.5)"/>
                        <path stroke="#FFF" stroke-width="3" d="M50.827 106.456L0 106.456 0 6.685 24.246 6.685M48.356 6.686L72.602 6.686 72.602 84.68" transform="translate(-303 -793) translate(0 734) translate(258 59.653) translate(46.5)"/>
                        <g>
                            <path stroke="#FFF" stroke-width="3" d="M7.746 2.487v12.405c0 1.172.95 2.122 2.123 2.122h.851c1.066 0 1.966-.79 2.104-1.847l.035-.264c.482-3.7 3.636-6.469 7.367-6.469 3.732 0 6.885 2.77 7.368 6.47l.034.263c.138 1.056 1.038 1.847 2.105 1.847 1.172 0 2.122-.95 2.122-2.122V2.487c0-.905-.734-1.64-1.639-1.64H9.386c-.906 0-1.64.735-1.64 1.64zM68.146 101.18c0-9.565-7.755-17.32-17.32-17.32-9.566 0-17.321 7.755-17.321 17.32 0 9.566 7.755 17.32 17.32 17.32 9.566 0 17.32-7.754 17.32-17.32z" transform="translate(-303 -793) translate(0 734) translate(258 59.653) translate(46.5) translate(16.5)"/>
                            <path fill="#FFF" d="M57.151 96.43v-.345c0-2.885-2.093-5.287-4.839-5.78v-1.552h-2.075v1.553c-2.746.492-4.839 2.894-4.839 5.779 0 2.49 1.646 4.648 4.294 5.633.357.133.72.252 1.083.37.618.203 1.258.412 1.846.692 1.561.742 2.456 2.016 2.456 3.496 0 2.096-1.706 3.802-3.802 3.802-2.06 0-3.766-1.671-3.803-3.726l-.006-.34h-2.073l.005.352c.039 2.838 2.129 5.2 4.839 5.69v1.554h2.075v-1.553c2.746-.492 4.839-2.894 4.839-5.78 0-1.312-.438-2.517-1.34-3.682-.854-1.104-2.166-1.674-3.213-2.046-.288-.101-.583-.198-.88-.294-.977-.316-1.987-.644-2.789-1.243-.899-.672-1.457-1.792-1.457-2.925 0-2.096 1.706-3.802 3.803-3.802 2.096 0 3.802 1.706 3.802 3.802v.346h2.074zM.643 31.009L5.226 31.009 5.226 42.427 3.041 42.427 3.041 32.934.643 32.934zM10.626 33.627c-.435.658-.653 1.688-.653 3.09 0 1.393.218 2.42.653 3.084.435.663 1.104.995 2.006.995.903 0 1.57-.332 2.006-.995.435-.663.653-1.691.653-3.083 0-1.403-.218-2.433-.653-3.091-.435-.658-1.103-.987-2.006-.987-.902 0-1.571.329-2.006.987m5.644-1.215c.848 1 1.272 2.436 1.272 4.306 0 1.859-.424 3.29-1.272 4.29-.85 1-2.061 1.5-3.638 1.5s-2.79-.5-3.637-1.5c-.848-1-1.273-2.431-1.273-4.29 0-1.87.425-3.306 1.273-4.306.848-1.001 2.06-1.501 3.637-1.501s2.789.5 3.638 1.5M27.638 37.859L27.638 39.735 25.991 39.735 25.991 42.426 23.968 42.426 23.968 39.735 18.504 39.735 18.504 38.121 22.223 31.008 24.327 31.008 20.836 37.859 23.968 37.859 23.968 35.216 25.991 35.216 25.991 37.859zM31.928 33.627c-.435.658-.653 1.688-.653 3.09 0 1.393.218 2.42.653 3.084.435.663 1.104.995 2.006.995.903 0 1.57-.332 2.006-.995.435-.663.653-1.691.653-3.083 0-1.403-.218-2.433-.653-3.091-.435-.658-1.103-.987-2.006-.987-.902 0-1.571.329-2.006.987m5.644-1.215c.848 1 1.272 2.436 1.272 4.306 0 1.859-.424 3.29-1.272 4.29-.85 1-2.061 1.5-3.638 1.5s-2.79-.5-3.637-1.5c-.848-1-1.273-2.431-1.273-4.29 0-1.87.425-3.306 1.273-4.306.848-1.001 2.06-1.501 3.637-1.501s2.789.5 3.638 1.5M.643 44.153L5.226 44.153 5.226 55.571 3.041 55.571 3.041 46.078.643 46.078zM10.626 46.771c-.435.658-.653 1.688-.653 3.091 0 1.392.218 2.42.653 3.083.435.663 1.104.995 2.006.995.903 0 1.57-.332 2.006-.995.435-.663.653-1.69.653-3.083 0-1.403-.218-2.433-.653-3.09-.435-.659-1.103-.988-2.006-.988-.902 0-1.571.33-2.006.987m5.644-1.215c.848 1 1.272 2.436 1.272 4.306 0 1.86-.424 3.29-1.272 4.29-.85 1-2.061 1.501-3.638 1.501s-2.79-.5-3.637-1.5c-.848-1-1.273-2.432-1.273-4.29 0-1.87.425-3.307 1.273-4.307.848-1 2.06-1.5 3.637-1.5s2.789.5 3.638 1.5M27.638 51.004L27.638 52.88 25.991 52.88 25.991 55.571 23.968 55.571 23.968 52.88 18.504 52.88 18.504 51.266 22.223 44.153 24.327 44.153 20.836 51.004 23.968 51.004 23.968 48.361 25.991 48.361 25.991 51.004zM31.928 46.771c-.435.658-.653 1.688-.653 3.091 0 1.392.218 2.42.653 3.083.435.663 1.104.995 2.006.995.903 0 1.57-.332 2.006-.995.435-.663.653-1.69.653-3.083 0-1.403-.218-2.433-.653-3.09-.435-.659-1.103-.988-2.006-.988-.902 0-1.571.33-2.006.987m5.644-1.215c.848 1 1.272 2.436 1.272 4.306 0 1.86-.424 3.29-1.272 4.29-.85 1-2.061 1.501-3.638 1.501s-2.79-.5-3.637-1.5c-.848-1-1.273-2.432-1.273-4.29 0-1.87.425-3.307 1.273-4.307.848-1 2.06-1.5 3.637-1.5s2.789.5 3.638 1.5M.643 57.968L5.226 57.968 5.226 69.386 3.041 69.386 3.041 59.893.643 59.893zM10.626 60.586c-.435.658-.653 1.688-.653 3.09 0 1.393.218 2.42.653 3.084.435.663 1.104.995 2.006.995.903 0 1.57-.332 2.006-.995.435-.663.653-1.691.653-3.083 0-1.403-.218-2.433-.653-3.091-.435-.658-1.103-.987-2.006-.987-.902 0-1.571.329-2.006.987m5.644-1.215c.848 1 1.272 2.436 1.272 4.306 0 1.859-.424 3.29-1.272 4.29-.85 1-2.061 1.5-3.638 1.5s-2.79-.5-3.637-1.5c-.848-1-1.273-2.431-1.273-4.29 0-1.87.425-3.306 1.273-4.306.848-1.001 2.06-1.501 3.637-1.501s2.789.5 3.638 1.5M27.638 64.818L27.638 66.694 25.991 66.694 25.991 69.385 23.968 69.385 23.968 66.694 18.504 66.694 18.504 65.08 22.223 57.967 24.327 57.967 20.836 64.818 23.968 64.818 23.968 62.175 25.991 62.175 25.991 64.818zM31.928 60.586c-.435.658-.653 1.688-.653 3.09 0 1.393.218 2.42.653 3.084.435.663 1.104.995 2.006.995.903 0 1.57-.332 2.006-.995.435-.663.653-1.691.653-3.083 0-1.403-.218-2.433-.653-3.091-.435-.658-1.103-.987-2.006-.987-.902 0-1.571.329-2.006.987m5.644-1.215c.848 1 1.272 2.436 1.272 4.306 0 1.859-.424 3.29-1.272 4.29-.85 1-2.061 1.5-3.638 1.5s-2.79-.5-3.637-1.5c-.848-1-1.273-2.431-1.273-4.29 0-1.87.425-3.306 1.273-4.306.848-1.001 2.06-1.501 3.637-1.501s2.789.5 3.638 1.5M.643 72.263L5.226 72.263 5.226 83.681 3.041 83.681 3.041 74.188.643 74.188zM10.626 74.88c-.435.659-.653 1.689-.653 3.092 0 1.392.218 2.42.653 3.083.435.663 1.104.995 2.006.995.903 0 1.57-.332 2.006-.995.435-.663.653-1.691.653-3.083 0-1.403-.218-2.433-.653-3.091-.435-.658-1.103-.987-2.006-.987-.902 0-1.571.329-2.006.987m5.644-1.215c.848 1 1.272 2.436 1.272 4.306 0 1.859-.424 3.29-1.272 4.29-.85 1-2.061 1.5-3.638 1.5s-2.79-.5-3.637-1.5c-.848-1-1.273-2.431-1.273-4.29 0-1.87.425-3.306 1.273-4.306.848-1.001 2.06-1.501 3.637-1.501s2.789.5 3.638 1.5M27.638 79.113L27.638 80.989 25.991 80.989 25.991 83.68 23.968 83.68 23.968 80.989 18.504 80.989 18.504 79.375 22.223 72.262 24.327 72.262 20.836 79.113 23.968 79.113 23.968 76.47 25.991 76.47 25.991 79.113zM31.928 74.88c-.435.659-.653 1.689-.653 3.092 0 1.392.218 2.42.653 3.083.435.663 1.104.995 2.006.995.903 0 1.57-.332 2.006-.995.435-.663.653-1.691.653-3.083 0-1.403-.218-2.433-.653-3.091-.435-.658-1.103-.987-2.006-.987-.902 0-1.571.329-2.006.987m5.644-1.215c.848 1 1.272 2.436 1.272 4.306 0 1.859-.424 3.29-1.272 4.29-.85 1-2.061 1.5-3.638 1.5s-2.79-.5-3.637-1.5c-.848-1-1.273-2.431-1.273-4.29 0-1.87.425-3.306 1.273-4.306.848-1.001 2.06-1.501 3.637-1.501s2.789.5 3.638 1.5" transform="translate(-303 -793) translate(0 734) translate(258 59.653) translate(46.5) translate(16.5)"/>
                        </g>
                    </g>
                </g>
            </g>
        </g>
    </g>
</svg>
