<svg xmlns="http://www.w3.org/2000/svg" xmlns:xlink="http://www.w3.org/1999/xlink" width="78" height="63" viewBox="0 0 78 63">
    <defs>
        <path id="1u3iaft86a" d="M0 62L77 62 77 0 0 0z"/>
    </defs>
    <g fill="none" fill-rule="evenodd">
        <g>
            <g>
                <g>
                    <g transform="translate(-517 -1241) translate(145 1050) translate(373 43) translate(0 149)">
                        <path fill="#8CC63F" d="M30.5 38.516c-6.873 0-12.444-5.604-12.444-12.516 0-6.913 5.571-12.516 12.444-12.516 6.873 0 12.444 5.603 12.444 12.516 0 6.912-5.571 12.516-12.444 12.516zm13.545-1.409h3.539V34.16c0-6.897 5.559-12.488 12.416-12.488V9H1v34h43.045v-5.893z"/>
                        <path fill="#009245" d="M31.213 18.633c.446.027.838.13 1.16.22.33.09.648.184.97.347l-.017 1.927c-.56-.224-.79-.302-1.36-.442-.637-.157-1.082-.203-1.515-.203-.756 0-1.363.223-1.823.668-.459.446-.688 1.013-.688 1.702 0 .431.066.813.198 1.147.133.334.314.604.544.81.229.204.75.512 1.565.923l1.145.573c.97.487 1.647 1.065 2.031 1.732.385.67.577 1.472.577 2.411 0 .967-.282 1.81-.848 2.526-.565.716-1.139 1.02-1.935 1.275L31.206 36h-1.852l.008-1.64c-.882-.024-1.57-.328-2.08-.64l-.002-1.946c.259.202.653.396 1.183.584.53.188 1.022.281 1.474.281.66 0 1.178-.201 1.557-.605.378-.403.567-.922.567-1.554 0-.39-.068-.745-.204-1.065-.135-.32-.33-.592-.581-.814-.253-.222-.744-.521-1.474-.897l-.893-.45c-1.008-.507-1.745-1.128-2.21-1.861-.466-.735-.699-1.676-.699-2.823 0-.947.312-1.776.936-2.49.624-.712 1.29-1.107 2.396-1.309L29.335 17h1.87l.008 1.633z"/>
                        <path stroke="#009245" stroke-width="3" d="M44.045 43L1 43 1 9 60 9 60 21.672"/>
                        <path stroke="#FFF" stroke-width="3" d="M11 28c0-.552-.448-1-1-1-.551 0-1 .448-1 1s.449 1 1 1c.552 0 1-.448 1-1z"/>
                        <path stroke="#009245" stroke-width="3" d="M6 9L6 4 55 4 55 9M10 4L10 1 51 1 51 4"/>
                        <mask id="yr1h1so8cb" fill="#fff">
                            <use xlink:href="#1u3iaft86a"/>
                        </mask>
                        <path stroke="#009245" stroke-width="3" d="M44 61L76 61 76 38 44 38zM60.5 23h0C53.596 23 48 28.434 48 35.136V38h25v-2.864C73 28.434 67.404 23 60.5 23z" mask="url(#yr1h1so8cb)"/>
                        <path stroke="#009245" stroke-width="3" d="M65 46.937C65 44.763 63.209 43 61 43s-4 1.763-4 3.937c0 1.586.954 2.948 2.325 3.572V56h3.35v-5.49C64.046 49.884 65 48.522 65 46.936z" mask="url(#yr1h1so8cb)"/>
                    </g>
                </g>
            </g>
        </g>
    </g>
</svg>
