<svg xmlns="http://www.w3.org/2000/svg" width="81" height="60" viewBox="0 0 81 60">
    <g fill="none" fill-rule="evenodd" stroke-linecap="round">
        <g stroke="#009245" stroke-width="3">
            <g>
                <g>
                    <g>
                        <path d="M33 45h9.669s-.228 2.608.259 5.17c.374 1.963 1.74 3.707 3.764 4.801.565.307.301 1.029-.377 1.029h-26.63c-.678 0-.943-.722-.377-1.029 2.023-1.094 3.39-2.838 3.764-4.801.488-2.562.259-5.17.259-5.17H33zM34 41.5c0 .276-.224.5-.5.5s-.5-.224-.5-.5.224-.5.5-.5.5.224.5.5z" transform="translate(-897 -1376) translate(145 1050) translate(373 43) translate(381 285)"/>
                        <path d="M56 45H3.3C1.478 45 0 43.529 0 41.713V37h12.945" transform="translate(-897 -1376) translate(145 1050) translate(373 43) translate(381 285)"/>
                        <path d="M55.174 38H0V3.612C0 1.617 1.58 0 3.53 0h58.94C64.42 0 66 1.617 66 3.612v16.775M75 49.5L58 49.5" transform="translate(-897 -1376) translate(145 1050) translate(373 43) translate(381 285)"/>
                        <path d="M75.389 56H57.612c-.89 0-1.612-.751-1.612-1.678V21.678c0-.927.722-1.678 1.612-1.678h17.777c.89 0 1.611.751 1.611 1.678v32.644C77 55.25 76.279 56 75.389 56z" transform="translate(-897 -1376) translate(145 1050) translate(373 43) translate(381 285)"/>
                        <path d="M66 52.5c0-.276-.224-.5-.5-.5s-.5.224-.5.5.224.5.5.5.5-.224.5-.5zM64 24.5L66 24.5 68 24.5M45 24L55 11M37 20L41 24M29 24L33 19M21 20L24 24M13 24L17 19M22 17c0-1.657-1.343-3-3-3s-3 1.343-3 3 1.343 3 3 3 3-1.343 3-3zM30 26c0-1.657-1.343-3-3-3-1.656 0-3 1.343-3 3s1.344 3 3 3c1.657 0 3-1.343 3-3zM38 17c0-1.657-1.343-3-3-3s-3 1.343-3 3 1.343 3 3 3 3-1.343 3-3zM46 26c0-1.657-1.343-3-3-3s-3 1.343-3 3 1.343 3 3 3 3-1.343 3-3zM59 9c0-1.657-1.343-3-3-3s-3 1.343-3 3 1.343 3 3 3 3-1.343 3-3zM15 26c0-1.657-1.343-3-3-3s-3 1.343-3 3 1.343 3 3 3 3-1.343 3-3z" transform="translate(-897 -1376) translate(145 1050) translate(373 43) translate(381 285)"/>
                    </g>
                </g>
            </g>
        </g>
    </g>
</svg>
