<svg xmlns="http://www.w3.org/2000/svg" width="58" height="99" viewBox="0 0 58 99">
    <g fill="none" fill-rule="evenodd">
        <g>
            <g>
                <g>
                    <g>
                        <path fill="#009245" d="M5 81L50 81 50 15 5 15z" transform="translate(-529 -1092) translate(145 1050) translate(373 43) translate(13)"/>
                        <path stroke="#FFF" stroke-linecap="round" stroke-linejoin="round" stroke-width="3" d="M15 75L17 75 17 73 15 73zM26 75L28 75 28 73 26 73zM37 75L39 75 39 73 37 73z" transform="translate(-529 -1092) translate(145 1050) translate(373 43) translate(13)"/>
                        <g>
                            <path stroke="#009245" stroke-linecap="round" stroke-linejoin="round" stroke-width="3" d="M46.821 95.563H7.274c-3.776 0-6.839-3.068-6.839-6.853V7.42c0-3.785 3.063-6.853 6.84-6.853H46.82c3.778 0 6.84 3.068 6.84 6.853v81.29c0 3.785-3.062 6.853-6.84 6.853zM.436 10.638L53.66 10.638M.436 85.494L53.66 85.494M20.066 5.647L34.03 5.647" transform="translate(-529 -1092) translate(145 1050) translate(373 43) translate(13)"/>
                            <path fill="#FFF" d="M27.38 48.658l-.33.315-.314-.305c.087.079.2.113.314.113.122 0 .235-.044.33-.123" transform="translate(-529 -1092) translate(145 1050) translate(373 43) translate(13)"/>
                            <path fill="#FFF" d="M31.1 42.078l-.192.175.2 1.71-4.058 3.64-4.059-3.64.2-1.71-.191-.175c-1.533-1.396-2.134-2.636-2.221-4.563-.026-2.81 1.167-8.196 1.167-8.221 1.21-4.138 4.912-3.963 5.069-3.955h.07c.008 0 .949-.06 2.055.402 1.48.603 2.5 1.807 2.996 3.525.018.053 1.21 5.438 1.185 8.23-.087 1.946-.688 3.186-2.221 4.582zm12.002 10.055c-.314-1.571-1.167-2.995-2.404-4.016-.793-.654-1.594-1.073-2.36-1.248l-5.627-1.632c-.07-.016-.14-.051-.2-.096-.174-.122-.288-.305-.314-.515l-.226-1.98c1.594-1.52 2.256-2.968 2.36-5.124.026-2.923-1.158-8.256-1.22-8.509-1.375-4.703-5.643-4.695-6.061-4.686-.427-.009-4.695-.017-6.08 4.721-.043.218-1.228 5.55-1.201 8.493.095 2.137.766 3.586 2.36 5.104l-.174 1.51v.01l-.053.461c-.026.21-.139.393-.313.515-.07.045-.13.08-.21.096l-5.59 1.632c-.793.175-1.595.594-2.396 1.248-1.228 1.021-2.082 2.445-2.395 4.016l-1.42 7.094 10.452 2.174c.27.052.531-.123.592-.393.052-.28-.122-.542-.392-.603l-9.467-1.963 1.22-6.11c.27-1.343 1-2.564 2.055-3.437.67-.55 1.332-.908 2.003-1.056l5.626-1.633c.174-.052.331-.13.48-.226.304-.21.53-.498.652-.829l3.502 3.14-2.239 2.14-2.891-2.775c-.2-.193-.523-.193-.714.008-.192.2-.183.523.017.716l3.588 3.446 2.988-2.853-.314-.305c.087.079.2.113.314.113.122 0 .235-.044.33-.123l-.33.315 2.987 2.853 3.589-3.446c.2-.193.2-.516.008-.716-.191-.201-.505-.201-.705-.008l-2.9 2.774-2.239-2.138 3.51-3.15c.113.34.34.628.645.838.148.095.313.174.487.226l5.662 1.64c.635.141 1.297.498 1.968 1.049 1.054.873 1.786 2.094 2.056 3.438l1.21 6.109-9.459 1.963c-.278.061-.452.323-.391.603.043.235.252.401.487.401.035 0 .07-.008.105-.008l10.443-2.174-1.411-7.094z" transform="translate(-529 -1092) translate(145 1050) translate(373 43) translate(13)"/>
                            <path fill="#FFF" d="M27.38 48.658l-.33.315-.314-.305c.087.079.2.113.314.113.122 0 .235-.044.33-.123M27.048 61.714c-.278 0-.503-.226-.503-.505v-5.271c0-.279.225-.504.503-.504s.504.225.504.504v5.271c0 .279-.226.505-.504.505M27.048 52.274c-.278 0-.503-.224-.503-.502v-.003c0-.279.225-.505.503-.505s.504.226.504.505c0 .277-.226.505-.504.505m0 1.685c-.278 0-.503-.224-.503-.503v-.003c0-.28.225-.505.503-.505s.504.226.504.505c0 .278-.226.506-.504.506M35.58 42.774c-.435 0-.894-.038-1.378-.122-.274-.046-.458-.307-.411-.582.047-.274.308-.457.58-.41 3.144.538 5.058-1.118 5.865-2.054-1.367-.377-2.428-1.263-3.163-2.648-.92-1.735-1.11-3.5-1.314-5.368-.027-.248-.054-.497-.083-.748-.16-1.383-.39-2.845-.983-4.171-1.213-2.716-4.356-4.613-7.644-4.613-.28 0-.504-.226-.504-.505 0-.28.225-.505.504-.505 3.672 0 7.193 2.143 8.563 5.211.648 1.45.894 3.004 1.063 4.467.03.253.057.504.085.755.192 1.769.374 3.439 1.203 5.004.72 1.36 1.772 2.106 3.214 2.28l.76.092-.386.662c-.02.036-1.946 3.255-5.97 3.255" transform="translate(-529 -1092) translate(145 1050) translate(373 43) translate(13)"/>
                            <path fill="#FFF" d="M18.516 42.774c-4.025 0-5.95-3.219-5.97-3.255l-.386-.662.76-.093c1.442-.173 2.493-.919 3.214-2.28.83-1.564 1.01-3.234 1.203-5.003.027-.251.055-.502.085-.755.168-1.462.415-3.017 1.063-4.467 1.37-3.068 4.891-5.211 8.563-5.211.278 0 .504.226.504.505s-.226.505-.504.505c-3.288 0-6.43 1.897-7.644 4.613-.593 1.326-.822 2.788-.983 4.17-.03.252-.056.5-.083.75-.203 1.867-.395 3.632-1.315 5.367-.735 1.386-1.799 2.275-3.169 2.65.798.94 2.697 2.597 5.871 2.051.272-.046.534.137.581.411.047.275-.137.536-.41.582-.485.084-.945.122-1.38.122" transform="translate(-529 -1092) translate(145 1050) translate(373 43) translate(13)"/>
                        </g>
                    </g>
                </g>
            </g>
        </g>
    </g>
</svg>
