<svg xmlns="http://www.w3.org/2000/svg" width="76" height="75" viewBox="0 0 76 75">
    <g fill="none" fill-rule="evenodd">
        <g>
            <g>
                <g>
                    <g>
                        <path fill="#35B0CB" d="M21.009 63.425L18.544 61.872 17 64.621 19.127 72 32 72 30.769 59.148 21.87 54zM1.231 59.148L0 72 12.873 72 15 64.621 13.457 61.872 10.992 63.425 10.13 54z" transform="translate(-519 -1359) translate(145 1050) translate(373 43) translate(3 268)"/>
                        <g>
                            <path stroke="#009245" stroke-linejoin="round" stroke-width="3" d="M.31 71.769c0-.79 1.159-13.215 1.159-13.215l8.37-5.475M9.839 53.079L10.682 63.345 15.578 59.081zM14.419 63.977L12.419 71.769M30.845 71.769c0-.79-1.158-13.215-1.158-13.215l-8.37-5.475M21.316 53.079L20.474 63.345 15.578 59.081z" transform="translate(-519 -1359) translate(145 1050) translate(373 43) translate(3 268)"/>
                            <path stroke="#009245" stroke-linejoin="round" stroke-width="3" d="M15.578 59.081L12.967 61.354 14.42 63.977 15.578 63.977 16.736 63.977 18.188 61.354zM16.736 63.977L18.736 71.769" transform="translate(-519 -1359) translate(145 1050) translate(373 43) translate(3 268)"/>
                            <path stroke="#009245" stroke-linecap="round" stroke-linejoin="round" stroke-width="3" d="M21.316 66.837L25.791 66.837" transform="translate(-519 -1359) translate(145 1050) translate(373 43) translate(3 268)"/>
                            <path stroke="#009245" stroke-linejoin="round" stroke-width="3" d="M21.667 44.48c0-4.129-2.727-7.476-6.09-7.476-3.362 0-6.089 3.347-6.089 7.475 0 4.13 2.727 7.477 6.09 7.477 3.362 0 6.09-3.348 6.09-7.477z" transform="translate(-519 -1359) translate(145 1050) translate(373 43) translate(3 268)"/>
                            <path fill="#8CC63F" d="M71.876 34.988L70.718 21.774 62.347 16.479 61.537 26.171 59.219 24.574 57.767 27.401 59.767 34.988zM41.341 34.988L42.499 21.774 50.87 16.479 51.68 26.171 53.998 24.574 55.45 27.401 53.449 34.988z" transform="translate(-519 -1359) translate(145 1050) translate(373 43) translate(3 268)"/>
                            <path stroke="#009245" stroke-linejoin="round" stroke-width="3" d="M41.341 34.988c0-.79 1.158-13.214 1.158-13.214l8.37-5.475M50.87 16.299L51.712 26.564 56.608 22.3zM55.45 27.197L53.45 34.988M71.876 34.988c0-.79-1.158-13.214-1.158-13.214l-8.371-5.475M62.347 16.299L61.505 26.564 56.608 22.3zM56.608 22.3L53.998 24.574 55.45 27.197 56.608 27.197 57.766 27.197 59.219 24.574zM57.767 27.197L59.767 34.988" transform="translate(-519 -1359) translate(145 1050) translate(373 43) translate(3 268)"/>
                            <path stroke="#009245" stroke-linecap="round" stroke-linejoin="round" stroke-width="3" d="M62.347 30.057L66.821 30.057" transform="translate(-519 -1359) translate(145 1050) translate(373 43) translate(3 268)"/>
                            <path stroke="#009245" stroke-linejoin="round" stroke-width="3" d="M62.698 7.699c0-4.128-2.727-7.476-6.09-7.476s-6.09 3.348-6.09 7.476c0 4.129 2.727 7.476 6.09 7.476s6.09-3.347 6.09-7.476z" transform="translate(-519 -1359) translate(145 1050) translate(373 43) translate(3 268)"/>
                            <path stroke="#009245" stroke-linecap="round" stroke-width="3" d="M46.954 63.069c4.566-1.32 14.199-5.489 18.116-17.712M13.42 30.49c1.319-4.567 5.488-14.2 17.71-18.116" transform="translate(-519 -1359) translate(145 1050) translate(373 43) translate(3 268)"/>
                        </g>
                    </g>
                </g>
            </g>
        </g>
    </g>
</svg>
