<svg xmlns="http://www.w3.org/2000/svg" width="75" height="76" viewBox="0 0 75 76">
    <g fill="none" fill-rule="evenodd" stroke-linecap="round">
        <g stroke="#009245" stroke-width="3">
            <g>
                <g>
                    <g>
                        <path d="M9 38.5L57 38.5M33.5 15L33.5 39" transform="translate(-520 -1485) translate(145 1050) translate(373 43) translate(4 394)"/>
                        <g>
                            <path d="M9.68 38.741c0-12.999 10.653-23.561 23.795-23.561 13.142 0 23.795 10.597 23.795 23.597M33.475 15.18S20.72 20.217 20.72 38.717M33.475 15.18S46.23 20.217 46.23 38.717M33.472 28.62c-13.14 0-16.544-6.818-16.544-6.818M50.022 21.802s-3.404 6.818-16.544 6.818M33.478 62.275L33.478 38.716" transform="translate(-520 -1485) translate(145 1050) translate(373 43) translate(4 394)"/>
                            <path d="M57.27 38.741c0 12.999-10.653 23.537-23.795 23.537-13.141 0-23.795-10.538-23.795-23.537M33.475 62.278S46.23 57.24 46.23 38.741M33.475 62.278S20.72 57.24 20.72 38.741M50.022 55.655s-3.404-6.818-16.544-6.818M16.928 55.655s3.404-6.818 16.544-6.818M28.376 2.359c-2.295 5.09-7.694 5.3-13.867 9.226-4.822 3.065-8.557 7.698-11.022 12.823C-.46 32.616-.76 42.464 2.682 50.891" transform="translate(-520 -1485) translate(145 1050) translate(373 43) translate(4 394)"/>
                            <path d="M24.085 1.696L29.676.433 30.953 5.963M4.167 61.297c5.603-.579 8.488 3.94 15.01 7.266 5.096 2.598 11.018 3.48 16.74 3.029 9.158-.722 17.93-5.39 23.588-12.55" transform="translate(-520 -1485) translate(145 1050) translate(373 43) translate(4 394)"/>
                            <path d="M5.732 65.304L1.831 61.146 6.034 57.287M67.873 52.566c-3.308-4.51-.793-9.241-1.144-16.492-.273-5.664-2.461-11.178-5.717-15.853C55.8 12.736 47.328 7.555 38.228 6.289" transform="translate(-520 -1485) translate(145 1050) translate(373 43) translate(4 394)"/>
                            <path d="M70.598 49.221L68.909 54.643 63.428 52.971" transform="translate(-520 -1485) translate(145 1050) translate(373 43) translate(4 394)"/>
                        </g>
                    </g>
                </g>
            </g>
        </g>
    </g>
</svg>
