<svg xmlns="http://www.w3.org/2000/svg" width="75" height="75" viewBox="0 0 75 75">
    <g fill="none" fill-rule="evenodd">
        <g>
            <g>
                <g>
                    <g>
                        <path stroke="#009245" stroke-linecap="round" stroke-width="3" d="M33 5C14.775 5 0 19.775 0 38c0 18.226 14.775 33 33 33s33-14.774 33-33H33V5z" transform="translate(-900 -1231) translate(145 1050) translate(373 43) translate(384 140)"/>
                        <path stroke="#009245" stroke-linecap="round" stroke-width="3" d="M39 0v32h32C71 14.327 56.673 0 39 0z" transform="translate(-900 -1231) translate(145 1050) translate(373 43) translate(384 140)"/>
                        <path fill="#D9E021" d="M60.678 29H67C65.417 15.956 55.044 5.583 42 4v6.321C51.761 11.503 59.497 19.24 60.678 29" transform="translate(-900 -1231) translate(145 1050) translate(373 43) translate(384 140)"/>
                        <path fill="#8CC63F" d="M35.652 42.253c-.88.85-2.074 1.374-3.394 1.374-2.698 0-4.886-2.187-4.886-4.885 0-1.32.526-2.514 1.376-3.394V27C23.69 28.51 20 33.193 20 38.742 20 45.512 25.488 51 32.258 51c5.55 0 10.232-3.69 11.742-8.747h-8.348z" transform="translate(-900 -1231) translate(145 1050) translate(373 43) translate(384 140)"/>
                    </g>
                </g>
            </g>
        </g>
    </g>
</svg>
